<svg xmlns="http://www.w3.org/2000/svg" viewBox="0 0 590 167"><defs><style>.cls-1{fill:#1dbf73;}.cls-2{fill:#fff;}.cls-3{fill:#404145;}</style></defs><g id="Layer_2" data-name="Layer 2"><g id="Layer_1-2" data-name="Layer 1"><rect class="cls-1" width="287" height="167" rx="37.83"/><path class="cls-2" d="M69.4,121.43a43.17,43.17,0,0,1-17.9-3.56A29.58,29.58,0,0,1,39,107.75a28,28,0,0,1-4.82-15.6H55.66a20.13,20.13,0,0,0,2.17,5.42,11.82,11.82,0,0,0,3.92,3.8,13.19,13.19,0,0,0,7,1.62q6.75,0,10.06-4a13.45,13.45,0,0,0,.06-17.6q-3.26-4-9.88-4a12.34,12.34,0,0,0-6.81,1.62,14.39,14.39,0,0,0-4.4,5H34.94l8.43-53H98.92v20H58.55L55.78,67.93h.61a21.08,21.08,0,0,1,3.91-3.68A19.65,19.65,0,0,1,66,61.66a30.32,30.32,0,0,1,8.73-1.09q9.64,0,16.39,4.16a27.72,27.72,0,0,1,10.24,10.79,30,30,0,0,1,3.5,14.22,31.66,31.66,0,0,1-2.17,11.44A30,30,0,0,1,96,111.43,32.4,32.4,0,0,1,85,118.72,40.89,40.89,0,0,1,69.4,121.43Z"/><path class="cls-2" d="M127,121.43a11.27,11.27,0,0,1-8.55-3.56,12.14,12.14,0,0,1,0-16.81,12.23,12.23,0,0,1,17.11,0,12.17,12.17,0,0,1,0,16.81A11.29,11.29,0,0,1,127,121.43Z"/><path class="cls-2" d="M150.38,143.72V56.36h22.89v7h1a22.86,22.86,0,0,1,4.16-4.1,22.3,22.3,0,0,1,5.48-2.83A22.86,22.86,0,0,1,192,55.15,24.72,24.72,0,0,1,204.06,58a25.79,25.79,0,0,1,8.56,7.6,33.84,33.84,0,0,1,5.12,10.66,43.8,43.8,0,0,1,0,24.1A34,34,0,0,1,212.62,111a25.87,25.87,0,0,1-8.56,7.59A24.72,24.72,0,0,1,192,121.43a22.86,22.86,0,0,1-8.07-1.27,22,22,0,0,1-5.48-2.83,23.11,23.11,0,0,1-4.16-4.09h-1v30.48Zm22.05-55.43a19.3,19.3,0,0,0,1.33,7,13.66,13.66,0,0,0,4,5.66,11.06,11.06,0,0,0,13.32,0A13.93,13.93,0,0,0,195,95.34a19.49,19.49,0,0,0,0-14.1,13.93,13.93,0,0,0-3.92-5.66,11.06,11.06,0,0,0-13.32,0,13.66,13.66,0,0,0-4,5.66A19.3,19.3,0,0,0,172.43,88.29Z"/><path class="cls-2" d="M237.87,50a12.61,12.61,0,0,1-9.34-3.68,11.89,11.89,0,0,1-3.68-8.73,12,12,0,0,1,3.68-8.92A12.76,12.76,0,0,1,237.87,25a13,13,0,0,1,9.39,3.61,12.28,12.28,0,0,1,0,17.65A12.81,12.81,0,0,1,237.87,50Zm-11.45,70.25V56.36h22.89v63.86Z"/><path class="cls-3" d="M384.26,119.78A48.52,48.52,0,0,1,364.41,116a40.81,40.81,0,0,1-14.18-10.16,43,43,0,0,1-8.51-14.42A49,49,0,0,1,338.88,75a47.88,47.88,0,0,1,2.9-16.42,44.1,44.1,0,0,1,8.62-14.48,41.54,41.54,0,0,1,14.36-10.28,55.07,55.07,0,0,1,35.75-1.6,34.74,34.74,0,0,1,10.93,5.85,35.26,35.26,0,0,1,7,7.63,39.27,39.27,0,0,1,4,7.62,56,56,0,0,1,2.3,8.09H402.34a20.19,20.19,0,0,0-3.13-5.79,16.48,16.48,0,0,0-5.26-4,19.77,19.77,0,0,0-9.1-1.78,20.8,20.8,0,0,0-12.47,3.61,22.5,22.5,0,0,0-7.56,9.27,29,29,0,0,0-2.54,11.94,29.54,29.54,0,0,0,2.6,12.11,23.22,23.22,0,0,0,7.74,9.57,21,21,0,0,0,12.7,3.73q7.46,0,11.88-3.37a15.78,15.78,0,0,0,5.85-8.92H382.61V70.27h43v7.21q0,13.81-5.32,23.28A34.8,34.8,0,0,1,405.71,115,46.18,46.18,0,0,1,384.26,119.78Z"/><path class="cls-3" d="M442.05,49.7a12.4,12.4,0,0,1-9.16-3.6,11.71,11.71,0,0,1-3.6-8.57,11.78,11.78,0,0,1,3.6-8.74,12.48,12.48,0,0,1,9.16-3.55,12.72,12.72,0,0,1,9.22,3.55,12.06,12.06,0,0,1,0,17.31A12.64,12.64,0,0,1,442.05,49.7Zm-11.23,68.9V56h22.45V118.6Z"/><path class="cls-3" d="M494.28,143.89q-9.22,0-15.19-2.25a26.71,26.71,0,0,1-9.33-5.49,22.46,22.46,0,0,1-4.91-6.56,32.78,32.78,0,0,1-2.36-7.8h21.63a10.25,10.25,0,0,0,3.48,3.9q2.07,1.31,6.32,1.3a11.65,11.65,0,0,0,8.63-3.19q3.19-3.19,3.19-9.45V108h-.94a20.05,20.05,0,0,1-6,5.85q-4.2,2.91-11.17,2.9a26.25,26.25,0,0,1-12-2.6,24.8,24.8,0,0,1-8.57-7,31.06,31.06,0,0,1-5.14-10,38.28,38.28,0,0,1,0-22.69,31,31,0,0,1,5.14-10,24.69,24.69,0,0,1,8.57-7,26.12,26.12,0,0,1,12-2.6q7,0,11.23,3a19.85,19.85,0,0,1,5.91,5.79h.94V56H528.2v58.38a30.78,30.78,0,0,1-2,10.69,27.32,27.32,0,0,1-6,9.51,29.19,29.19,0,0,1-10.52,6.8A42.06,42.06,0,0,1,494.28,143.89Zm.35-44.43a10.76,10.76,0,0,0,6.68-2,12.14,12.14,0,0,0,4-5.2,17.35,17.35,0,0,0,0-13.18,11.79,11.79,0,0,0-4-5.08A11,11,0,0,0,494.63,72,10.76,10.76,0,0,0,488.08,74a12.07,12.07,0,0,0-4,5.08,16.64,16.64,0,0,0,0,13.18,12.43,12.43,0,0,0,4,5.2A10.53,10.53,0,0,0,494.63,99.46Z"/><path class="cls-3" d="M562.82,119.78a36.67,36.67,0,0,1-13.65-2.18,25.11,25.11,0,0,1-8.57-5.44,26,26,0,0,1-4.78-6.44,31.88,31.88,0,0,1-2.54-7.56h20.2a10.51,10.51,0,0,0,3.73,4.43c1.53,1,3.8,1.47,6.79,1.47a9.24,9.24,0,0,0,4.32-.76,4,4,0,0,0,1.77-1.72,4.1,4.1,0,0,0,.41-1.41q0-3-5.32-3.79L556.56,95a50.15,50.15,0,0,1-11-3.08,20.58,20.58,0,0,1-8.39-6Q534,82,534,75.7a19.05,19.05,0,0,1,3.07-10.63,21.07,21.07,0,0,1,9-7.51,39.83,39.83,0,0,1,27.24-.71,25.59,25.59,0,0,1,8.15,5,22.79,22.79,0,0,1,4.61,6A31.26,31.26,0,0,1,588.58,75H569a9.09,9.09,0,0,0-3.25-3.66A11.23,11.23,0,0,0,560,70.15q-3.78,0-5.08,1.36a4,4,0,0,0-1.3,2.66,2.71,2.71,0,0,0,1.89,2.66,27.41,27.41,0,0,0,4.85,1.35L568,79.6q9.69,1.77,15.84,6.21T590,98.87a18.84,18.84,0,0,1-7,14.94Q576.06,119.78,562.82,119.78Z"/></g></g></svg>